<svg width="40" height="40" viewBox="0 0 40 40" fill="none" xmlns="http://www.w3.org/2000/svg">
<g id="icon_Photos">
<path id="Path" fill-rule="evenodd" clip-rule="evenodd" d="M11.5058 9.59999L12.8966 6.81925C13.0235 6.58483 13.2293 6.25157 13.4912 5.91169C13.8288 5.47353 14.1704 5.14442 14.5543 4.95718C14.76 4.85685 14.9754 4.79999 15.2002 4.79999H24.8002C25.025 4.79999 25.2404 4.85685 25.4461 4.95718C25.83 5.14442 26.1716 5.47353 26.5092 5.91169C26.7711 6.25157 26.9769 6.58483 27.1157 6.84222L28.4946 9.59999H31.2002C34.293 9.59999 36.8002 12.1072 36.8002 15.2V29.6C36.8002 32.6928 34.293 35.2 31.2002 35.2H8.8002C5.7074 35.2 3.2002 32.6928 3.2002 29.6V15.2C3.2002 12.1072 5.7074 9.59999 8.8002 9.59999H11.5058ZM9.6002 17.6C10.4839 17.6 11.2002 16.8836 11.2002 16C11.2002 15.1163 10.4839 14.4 9.6002 14.4C8.71654 14.4 8.0002 15.1163 8.0002 16C8.0002 16.8836 8.71654 17.6 9.6002 17.6ZM20.0002 28.8C23.9766 28.8 27.2002 25.5764 27.2002 21.6C27.2002 17.6235 23.9766 14.4 20.0002 14.4C16.0237 14.4 12.8002 17.6235 12.8002 21.6C12.8002 25.5764 16.0237 28.8 20.0002 28.8Z" fill="#1565D8"/>
<path id="Path_2" opacity="0.3" fill-rule="evenodd" clip-rule="evenodd" d="M19.9999 27.2C23.0927 27.2 25.5999 24.6928 25.5999 21.6C25.5999 18.5072 23.0927 16 19.9999 16C16.9071 16 14.3999 18.5072 14.3999 21.6C14.3999 24.6928 16.9071 27.2 19.9999 27.2Z" fill="#1565D8"/>
</g>
</svg>
