<svg width="40" height="40" viewBox="0 0 40 40" fill="none" xmlns="http://www.w3.org/2000/svg">
<g id="Icon_Like">
<path id="Path" fill-rule="evenodd" clip-rule="evenodd" d="M13.5337 14.3137C15.2707 11.8236 16.355 8.96621 16.79 5.7314C16.8314 5.42325 17.0476 5.16702 17.3444 5.07436C20.3358 4.1405 22.0365 5.62448 22.0084 9.00827C22.0029 9.66511 21.9729 10.2489 21.9089 11.1418C21.766 13.1363 21.7774 13.6806 21.9987 14.0468C22.2115 14.3989 22.9023 14.5191 24.5361 14.2062C25.0516 14.1075 25.5688 13.9955 26.1416 13.8611C26.3944 13.8018 28.2157 13.3535 28.6813 13.2521C29.5693 13.0586 30.2065 12.9768 30.7669 13.0114C32.2848 13.1054 33.0903 14.0913 33.2295 15.9801C33.4746 19.3065 32.7172 25.988 31.9616 28.4491C31.1895 30.964 29.843 31.9133 26.6108 31.9706C24.5327 32.0075 21.3366 32.0075 17.0074 31.9705C15.9023 31.9446 14.9008 31.7287 14.01 31.3251C14.26 30.8028 14.4001 30.2177 14.4001 29.6V16.8C14.4001 15.8603 14.0761 14.9964 13.5337 14.3137Z" fill="#1565D8"/>
<path id="Path_2" opacity="0.3" fill-rule="evenodd" clip-rule="evenodd" d="M8.7999 14.4C7.47442 14.4 6.3999 15.4745 6.3999 16.8V29.6C6.3999 30.9255 7.47442 32 8.7999 32H10.3999C11.7254 32 12.7999 30.9255 12.7999 29.6V16.8C12.7999 15.4745 11.7254 14.4 10.3999 14.4H8.7999Z" fill="#1565D8"/>
</g>
</svg>
