<svg width="40" height="40" viewBox="0 0 40 40" fill="none" xmlns="http://www.w3.org/2000/svg">
<g id="Icon_Professional">
<path id="Path" fill-rule="evenodd" clip-rule="evenodd" d="M12.8001 12C12.8001 8.02354 16.0236 4.79999 20.0001 4.79999C23.9765 4.79999 27.2001 8.02354 27.2001 12C27.2001 14.7695 25.6218 17.2445 23.212 18.4457L23.3764 19.7604C27.5294 21.1833 30.4001 25.1095 30.4001 29.6V31.2C30.4001 31.6418 30.0419 32 29.6001 32H10.4001C9.95827 32 9.6001 31.6418 9.6001 31.2V29.6C9.6001 25.1095 12.4708 21.1833 16.6238 19.7604L16.7882 18.4457C14.3784 17.2445 12.8001 14.7695 12.8001 12Z" fill="#1565D8"/>
<path id="Path_2" opacity="0.3" fill-rule="evenodd" clip-rule="evenodd" d="M5.62446 9.18724C5.62446 9.84918 5.08764 10.3858 4.42545 10.3858C3.76326 10.3858 3.22644 9.84918 3.22644 9.18724V5.9841C3.22644 4.44341 4.47617 3.19452 6.01768 3.19452H9.22148C9.88367 3.19452 10.4205 3.73113 10.4205 4.39306C10.4205 5.055 9.88367 5.59161 9.22148 5.59161H6.01768C5.80043 5.59161 5.62446 5.76741 5.62446 5.9841V9.18724ZM30.8056 5.59922C30.1435 5.59922 29.6066 5.06261 29.6066 4.40067C29.6066 3.73873 30.1435 3.20213 30.8056 3.20213H34.0094C35.551 3.20213 36.8007 4.45102 36.8007 5.99171V9.19485C36.8007 9.85679 36.2639 10.3934 35.6017 10.3934C34.9395 10.3934 34.4027 9.85679 34.4027 9.19485V5.99171C34.4027 5.77502 34.2267 5.59922 34.0094 5.59922H30.8056ZM34.3931 30.8018C34.3931 30.1399 34.9299 29.6033 35.5921 29.6033C36.2543 29.6033 36.7911 30.1399 36.7911 30.8018V34.0049C36.7911 35.5456 35.5414 36.7945 33.9999 36.7945H30.7961C30.1339 36.7945 29.5971 36.2579 29.5971 35.596C29.5971 34.934 30.1339 34.3974 30.7961 34.3974H33.9999C34.2171 34.3974 34.3931 34.2216 34.3931 34.0049V30.8018ZM9.19572 34.3974C9.85791 34.3974 10.3947 34.934 10.3947 35.596C10.3947 36.2579 9.85791 36.7945 9.19572 36.7945H5.99192C4.45041 36.7945 3.20068 35.5456 3.20068 34.0049V30.8018C3.20068 30.1399 3.7375 29.6033 4.39969 29.6033C5.06188 29.6033 5.5987 30.1399 5.5987 30.8018V34.0049C5.5987 34.2216 5.77467 34.3974 5.99192 34.3974H9.19572Z" fill="#1565D8"/>
</g>
</svg>
