<svg width="198" height="198" viewBox="0 0 198 198" fill="none" xmlns="http://www.w3.org/2000/svg">
<g id="Icon">
<g id="Border" opacity="0.2">
<rect id="Shape" x="3" y="3" width="192" height="192" rx="16" stroke="#1565D8"/>
</g>
<g id="icon_Photos">
<path id="Path" fill-rule="evenodd" clip-rule="evenodd" d="M73.5175 67.8L77.6898 59.4578C78.0704 58.7545 78.6878 57.7547 79.4736 56.7351C80.4864 55.4206 81.5111 54.4333 82.6628 53.8716C83.2799 53.5706 83.9263 53.4 84.6006 53.4H113.401C114.075 53.4 114.721 53.5706 115.338 53.8716C116.49 54.4333 117.515 55.4206 118.528 56.7351C119.313 57.7547 119.931 58.7545 120.347 59.5267L124.484 67.8H132.601C141.879 67.8 149.401 75.3216 149.401 84.6V127.8C149.401 137.078 141.879 144.6 132.601 144.6H65.4006C56.1222 144.6 48.6006 137.078 48.6006 127.8V84.6C48.6006 75.3216 56.1222 67.8 65.4006 67.8H73.5175ZM67.8006 91.8C70.4516 91.8 72.6006 89.6509 72.6006 87C72.6006 84.349 70.4516 82.2 67.8006 82.2C65.1496 82.2 63.0006 84.349 63.0006 87C63.0006 89.6509 65.1496 91.8 67.8006 91.8ZM99.0006 125.4C110.93 125.4 120.601 115.729 120.601 103.8C120.601 91.8706 110.93 82.2 99.0006 82.2C87.0712 82.2 77.4006 91.8706 77.4006 103.8C77.4006 115.729 87.0712 125.4 99.0006 125.4Z" fill="#1565D8"/>
<path id="Path_2" opacity="0.3" fill-rule="evenodd" clip-rule="evenodd" d="M98.9997 120.6C108.278 120.6 115.8 113.078 115.8 103.8C115.8 94.5216 108.278 87 98.9997 87C89.7213 87 82.1997 94.5216 82.1997 103.8C82.1997 113.078 89.7213 120.6 98.9997 120.6Z" fill="#1565D8"/>
</g>
</g>
</svg>
