<svg width="66" height="66" viewBox="0 0 66 66" fill="none" xmlns="http://www.w3.org/2000/svg">
<g id="Icon">
<g id="Border" opacity="0.2">
<rect id="Shape" x="1" y="1" width="64" height="64" rx="16" stroke="#1565D8"/>
</g>
<g id="Icon_Professional">
<path id="Path" fill-rule="evenodd" clip-rule="evenodd" d="M25.8001 25C25.8001 21.0235 29.0236 17.8 33.0001 17.8C36.9765 17.8 40.2001 21.0235 40.2001 25C40.2001 27.7695 38.6218 30.2445 36.212 31.4457L36.3764 32.7604C40.5294 34.1833 43.4001 38.1095 43.4001 42.6V44.2C43.4001 44.6418 43.0419 45 42.6001 45H23.4001C22.9583 45 22.6001 44.6418 22.6001 44.2V42.6C22.6001 38.1095 25.4708 34.1833 29.6238 32.7604L29.7882 31.4457C27.3784 30.2445 25.8001 27.7695 25.8001 25Z" fill="#1565D8"/>
<path id="Path_2" opacity="0.3" fill-rule="evenodd" clip-rule="evenodd" d="M18.6245 22.1872C18.6245 22.8492 18.0876 23.3858 17.4255 23.3858C16.7633 23.3858 16.2264 22.8492 16.2264 22.1872V18.9841C16.2264 17.4434 17.4762 16.1945 19.0177 16.1945H22.2215C22.8837 16.1945 23.4205 16.7311 23.4205 17.3931C23.4205 18.055 22.8837 18.5916 22.2215 18.5916H19.0177C18.8004 18.5916 18.6245 18.7674 18.6245 18.9841V22.1872ZM43.8056 18.5992C43.1435 18.5992 42.6066 18.0626 42.6066 17.4007C42.6066 16.7387 43.1435 16.2021 43.8056 16.2021H47.0094C48.551 16.2021 49.8007 17.451 49.8007 18.9917V22.1948C49.8007 22.8568 49.2639 23.3934 48.6017 23.3934C47.9395 23.3934 47.4027 22.8568 47.4027 22.1948V18.9917C47.4027 18.775 47.2267 18.5992 47.0094 18.5992H43.8056ZM47.3931 43.8018C47.3931 43.1399 47.9299 42.6033 48.5921 42.6033C49.2543 42.6033 49.7911 43.1399 49.7911 43.8018V47.0049C49.7911 48.5456 48.5414 49.7945 46.9999 49.7945H43.7961C43.1339 49.7945 42.5971 49.2579 42.5971 48.596C42.5971 47.934 43.1339 47.3974 43.7961 47.3974H46.9999C47.2171 47.3974 47.3931 47.2216 47.3931 47.0049V43.8018ZM22.1957 47.3974C22.8579 47.3974 23.3947 47.934 23.3947 48.596C23.3947 49.2579 22.8579 49.7945 22.1957 49.7945H18.9919C17.4504 49.7945 16.2007 48.5456 16.2007 47.0049V43.8018C16.2007 43.1399 16.7375 42.6033 17.3997 42.6033C18.0619 42.6033 18.5987 43.1399 18.5987 43.8018V47.0049C18.5987 47.2216 18.7747 47.3974 18.9919 47.3974H22.1957Z" fill="#1565D8"/>
</g>
</g>
</svg>
