<svg width="18" height="21" viewBox="0 0 18 21" fill="none" xmlns="http://www.w3.org/2000/svg">
<path d="M14.657 14.657L10.414 18.9C10.2284 19.0857 10.0081 19.233 9.76556 19.3336C9.52303 19.4341 9.26305 19.4859 9.0005 19.4859C8.73796 19.4859 8.47798 19.4341 8.23544 19.3336C7.99291 19.233 7.77256 19.0857 7.587 18.9L3.343 14.657C2.22422 13.5381 1.46234 12.1127 1.15369 10.5608C0.845043 9.00898 1.00349 7.40047 1.60901 5.93868C2.21452 4.4769 3.2399 3.22749 4.55548 2.34846C5.87107 1.46943 7.41777 1.00024 9 1.00024C10.5822 1.00024 12.1289 1.46943 13.4445 2.34846C14.7601 3.22749 15.7855 4.4769 16.391 5.93868C16.9965 7.40047 17.155 9.00898 16.8463 10.5608C16.5377 12.1127 15.7758 13.5381 14.657 14.657V14.657Z" stroke="#666666" stroke-width="2" stroke-linecap="round" stroke-linejoin="round"/>
</svg>
