<svg width="66" height="66" viewBox="0 0 66 66" fill="none" xmlns="http://www.w3.org/2000/svg">
<g id="Icon">
<g id="Border" opacity="0.2">
<rect id="Shape" x="1" y="1" width="64" height="64" rx="16" stroke="#1565D8"/>
</g>
<g id="icon_Photos">
<path id="Path" fill-rule="evenodd" clip-rule="evenodd" d="M24.5058 22.6L25.8966 19.8193C26.0235 19.5848 26.2293 19.2516 26.4912 18.9117C26.8288 18.4735 27.1704 18.1444 27.5543 17.9572C27.76 17.8569 27.9754 17.8 28.2002 17.8H37.8002C38.025 17.8 38.2404 17.8569 38.4461 17.9572C38.83 18.1444 39.1716 18.4735 39.5092 18.9117C39.7711 19.2516 39.9769 19.5848 40.1157 19.8422L41.4946 22.6H44.2002C47.293 22.6 49.8002 25.1072 49.8002 28.2V42.6C49.8002 45.6928 47.293 48.2 44.2002 48.2H21.8002C18.7074 48.2 16.2002 45.6928 16.2002 42.6V28.2C16.2002 25.1072 18.7074 22.6 21.8002 22.6H24.5058ZM22.6002 30.6C23.4839 30.6 24.2002 29.8836 24.2002 29C24.2002 28.1163 23.4839 27.4 22.6002 27.4C21.7165 27.4 21.0002 28.1163 21.0002 29C21.0002 29.8836 21.7165 30.6 22.6002 30.6ZM33.0002 41.8C36.9766 41.8 40.2002 38.5764 40.2002 34.6C40.2002 30.6235 36.9766 27.4 33.0002 27.4C29.0237 27.4 25.8002 30.6235 25.8002 34.6C25.8002 38.5764 29.0237 41.8 33.0002 41.8Z" fill="#1565D8"/>
<path id="Path_2" opacity="0.3" fill-rule="evenodd" clip-rule="evenodd" d="M32.9999 40.2C36.0927 40.2 38.5999 37.6928 38.5999 34.6C38.5999 31.5072 36.0927 29 32.9999 29C29.9071 29 27.3999 31.5072 27.3999 34.6C27.3999 37.6928 29.9071 40.2 32.9999 40.2Z" fill="#1565D8"/>
</g>
</g>
</svg>
