<svg width="198" height="198" viewBox="0 0 198 198" fill="none" xmlns="http://www.w3.org/2000/svg">
<g id="Icon">
<g id="Border" opacity="0.2">
<rect id="Shape" x="3" y="3" width="192" height="192" rx="16" stroke="#1565D8"/>
</g>
<g id="Icon_Professional">
<path id="Path" fill-rule="evenodd" clip-rule="evenodd" d="M77.4003 75C77.4003 63.0706 87.0709 53.4 99.0003 53.4C110.93 53.4 120.6 63.0706 120.6 75C120.6 83.3086 115.865 90.7334 108.636 94.337L109.129 98.2812C121.588 102.55 130.2 114.329 130.2 127.8V132.6C130.2 133.925 129.126 135 127.8 135H70.2003C68.8748 135 67.8003 133.925 67.8003 132.6V127.8C67.8003 114.329 76.4125 102.55 88.8715 98.2812L89.3645 94.337C82.1353 90.7334 77.4003 83.3086 77.4003 75Z" fill="#1565D8"/>
<path id="Path_2" opacity="0.3" fill-rule="evenodd" clip-rule="evenodd" d="M55.8734 66.5617C55.8734 68.5475 54.2629 70.1573 52.2764 70.1573C50.2898 70.1573 48.6793 68.5475 48.6793 66.5617V56.9523C48.6793 52.3302 52.4285 48.5836 57.053 48.5836H66.6644C68.651 48.5836 70.2615 50.1934 70.2615 52.1792C70.2615 54.165 68.651 55.7748 66.6644 55.7748H57.053C56.4013 55.7748 55.8734 56.3022 55.8734 56.9523V66.5617ZM131.417 55.7976C129.43 55.7976 127.82 54.1878 127.82 52.202C127.82 50.2162 129.43 48.6064 131.417 48.6064H141.028C145.653 48.6064 149.402 52.3531 149.402 56.9751V66.5845C149.402 68.5704 147.792 70.1802 145.805 70.1802C143.818 70.1802 142.208 68.5704 142.208 66.5845V56.9751C142.208 56.325 141.68 55.7976 141.028 55.7976H131.417ZM142.179 131.405C142.179 129.42 143.79 127.81 145.776 127.81C147.763 127.81 149.373 129.42 149.373 131.405V141.015C149.373 145.637 145.624 149.384 141 149.384H131.388C129.402 149.384 127.791 147.774 127.791 145.788C127.791 143.802 129.402 142.192 131.388 142.192H141C141.651 142.192 142.179 141.665 142.179 141.015V131.405ZM66.5872 142.192C68.5737 142.192 70.1842 143.802 70.1842 145.788C70.1842 147.774 68.5737 149.384 66.5872 149.384H56.9758C52.3512 149.384 48.6021 145.637 48.6021 141.015V131.405C48.6021 129.42 50.2125 127.81 52.1991 127.81C54.1857 127.81 55.7961 129.42 55.7961 131.405V141.015C55.7961 141.665 56.324 142.192 56.9758 142.192H66.5872Z" fill="#1565D8"/>
</g>
</g>
</svg>
