<svg width="66" height="66" viewBox="0 0 66 66" fill="none" xmlns="http://www.w3.org/2000/svg">
<g id="Icon">
<g id="Border" opacity="0.2">
<rect id="Shape" x="1" y="1" width="64" height="64" rx="16" stroke="#1565D8"/>
</g>
<g id="Icon_Like">
<path id="Path" fill-rule="evenodd" clip-rule="evenodd" d="M26.5337 27.3137C28.2707 24.8236 29.355 21.9662 29.79 18.7314C29.8314 18.4232 30.0476 18.167 30.3444 18.0744C33.3358 17.1405 35.0365 18.6245 35.0084 22.0083C35.0029 22.6651 34.9729 23.2489 34.9089 24.1418C34.766 26.1363 34.7774 26.6806 34.9987 27.0468C35.2115 27.3989 35.9023 27.5191 37.5361 27.2062C38.0516 27.1075 38.5688 26.9955 39.1416 26.8611C39.3944 26.8018 41.2157 26.3535 41.6813 26.2521C42.5693 26.0586 43.2065 25.9768 43.7669 26.0114C45.2848 26.1054 46.0903 27.0913 46.2295 28.9801C46.4746 32.3065 45.7172 38.988 44.9616 41.4491C44.1895 43.964 42.843 44.9133 39.6108 44.9706C37.5327 45.0075 34.3366 45.0075 30.0074 44.9705C28.9023 44.9446 27.9008 44.7287 27.01 44.3251C27.26 43.8028 27.4001 43.2177 27.4001 42.6V29.8C27.4001 28.8603 27.0761 27.9964 26.5337 27.3137Z" fill="#1565D8"/>
<path id="Path_2" opacity="0.3" fill-rule="evenodd" clip-rule="evenodd" d="M21.7999 27.4C20.4744 27.4 19.3999 28.4745 19.3999 29.8V42.6C19.3999 43.9255 20.4744 45 21.7999 45H23.3999C24.7254 45 25.7999 43.9255 25.7999 42.6V29.8C25.7999 28.4745 24.7254 27.4 23.3999 27.4H21.7999Z" fill="#1565D8"/>
</g>
</g>
</svg>
