<svg width="198" height="198" viewBox="0 0 198 198" fill="none" xmlns="http://www.w3.org/2000/svg">
<g id="Icon">
<g id="Border" opacity="0.2">
<rect id="Shape" x="3" y="3" width="192" height="192" rx="16" stroke="#1565D8"/>
</g>
<g id="Icon_Like">
<path id="Path" fill-rule="evenodd" clip-rule="evenodd" d="M79.6011 81.941C84.8122 74.4707 88.0649 65.8986 89.3699 56.1942C89.4942 55.2697 90.1429 54.5011 91.0333 54.2231C100.007 51.4215 105.109 55.8734 105.025 66.0248C105.009 67.9953 104.919 69.7468 104.727 72.4255C104.298 78.409 104.332 80.0418 104.996 81.1405C105.635 82.1967 107.707 82.5573 112.608 81.6186C114.155 81.3224 115.706 80.9866 117.425 80.5834C118.183 80.4054 123.647 79.0605 125.044 78.7562C127.708 78.1759 129.62 77.9303 131.301 78.0343C135.854 78.3161 138.271 81.2738 138.688 86.9403C139.424 96.9196 137.152 116.964 134.885 124.347C132.568 131.892 128.529 134.74 118.832 134.912C112.598 135.022 103.01 135.022 90.0223 134.912C86.707 134.834 83.7025 134.186 81.0299 132.975C81.7801 131.408 82.2003 129.653 82.2003 127.8V89.4C82.2003 86.581 81.2282 83.9891 79.6011 81.941Z" fill="#1565D8"/>
<path id="Path_2" opacity="0.3" fill-rule="evenodd" clip-rule="evenodd" d="M65.3997 82.2001C61.4233 82.2001 58.1997 85.4236 58.1997 89.4001V127.8C58.1997 131.777 61.4233 135 65.3997 135H70.1997C74.1762 135 77.3997 131.777 77.3997 127.8V89.4001C77.3997 85.4236 74.1762 82.2001 70.1997 82.2001H65.3997Z" fill="#1565D8"/>
</g>
</g>
</svg>
